<svg xmlns="http://www.w3.org/2000/svg" viewBox="0 0 28.98 32"><defs><style>.cls-1{fill:#fafdff;}</style></defs><g id="Layer_2" data-name="Layer 2"><g id="layer_1-2" data-name="layer 1"><path class="cls-1" d="M13,25.61a20.7,20.7,0,0,1-2.12.16l2.45-3-2.23-5.13,1.84-2.54.51-.24.53.45c.37.32.71.61,1,.9l2-1.2c-.46-.47-1-.92-1.54-1.41l-.08-.06A7.81,7.81,0,1,0,2.18,7.84a7.85,7.85,0,0,0,2.46,5.71l0,0C1.91,15.87.49,17.36,0,23.73a3.12,3.12,0,0,0,1.84,2.71c1.79,1,5,1.56,8.15,1.56a29.32,29.32,0,0,0,3-.16ZM3,24.5c-.22-.13-.72-.45-.73-.68.44-5.65,1.57-6.61,3.8-8.52l.52-.44c.15.08.31.16.48.23l1.84,2.54L6.63,22.76l2.45,3A14.53,14.53,0,0,1,3,24.5Zm7-11.07a5.6,5.6,0,1,1,5.56-5.59A5.59,5.59,0,0,1,10,13.43Z"/><path class="cls-1" d="M10,3.92A.56.56,0,1,0,10,5a2.77,2.77,0,0,1,2.76,2.77.56.56,0,1,0,1.11,0A3.88,3.88,0,0,0,10,3.92Z"/><path class="cls-1" d="M22,15A7,7,0,0,0,16.4,26.21l-.13.08-4,4a1,1,0,0,0,0,1.42A1,1,0,0,0,13,32a1,1,0,0,0,.71-.29l4-4,.08-.13A7,7,0,1,0,22,15Zm0,12a5,5,0,1,1,5-5A5,5,0,0,1,22,27Z"/></g></g></svg>