<svg xmlns="http://www.w3.org/2000/svg" viewBox="0 0 57.31 32"><defs><style>.cls-1{fill:#fafdff;}</style></defs><g id="Layer_2" data-name="Layer 2"><g id="layer_1-2" data-name="layer 1"><path class="cls-1" d="M57.21,24.68l-1.33-4a7.75,7.75,0,0,0-2.76-3.82l-.86-.61V8c0-4.79-4.66-8-9-8s-9,3.21-9,8v8.29l-.89.62a7.89,7.89,0,0,0-2.74,3.81l-1.3,3.91a1.71,1.71,0,0,0,.23,1.66c.8,1.19,3.2,2.18,4.71,2.55,0,.06,0,.11,0,.16,0,1.75,2.47,2.3,3.28,2.48a28.27,28.27,0,0,0,5.72.52c3.36,0,9-.39,9-3a1,1,0,0,0,0-.16c1.52-.37,3.91-1.36,4.72-2.55A1.75,1.75,0,0,0,57.21,24.68ZM43.26,2c3.31,0,7,2.46,7,6v7.13l-1-.67V9.19a2.35,2.35,0,0,0-1.93-2.3c-.79-.15-1.81-.42-2.88-.71s-2.38-.64-3.55-.87a3.06,3.06,0,0,0-3.64,3v6.13l-1,.67V8C36.26,4.46,40,2,43.26,2Zm-4,10.46V8.33a1.08,1.08,0,0,1,.39-.84,1,1,0,0,1,.86-.22c1.1.22,2.28.54,3.42.85s2.17.58,3,.74a.34.34,0,0,1,.29.33v3.27a6,6,0,0,1-8,0Zm-.45,3.37a1,1,0,0,0,.42-.59l.26-.18a8,8,0,0,0,7.53,0l.27.18a1,1,0,0,0,.41.59l2,1.33-3.89,1.95a1,1,0,0,0-.49.54l-2.06,5.5-2.07-5.5a1,1,0,0,0-.42-.51L37.13,17Zm13,11.06-.62-3.09a1,1,0,1,0-2,.4l.94,4.72c-.52.41-2.86,1.08-7,1.08s-6.45-.67-7-1.08l1-4.72a1,1,0,0,0-2-.4l-.62,3.09a8.72,8.72,0,0,1-3.42-1.68l1.29-3.86a5.77,5.77,0,0,1,2-2.82l.61-.43,4.28,2.58,2.88,7.67a1,1,0,0,0,.94.65,1,1,0,0,0,.93-.65l2.87-7.63,4.68-2.35.2.14A5.84,5.84,0,0,1,54,21.35l1.29,3.86A8.8,8.8,0,0,1,51.86,26.89Z"/><path class="cls-1" d="M28,24.68l-1.33-4a7.81,7.81,0,0,0-2.76-3.82l-4.38-3.08A8,8,0,0,0,22.05,8a7.76,7.76,0,0,0-.13-1.37C24,5.08,23.13,1.22,23,.76L22.83,0H12.05C9.44,0,7.27,1.17,6.52,3a3.25,3.25,0,0,0,0,2.43,8,8,0,0,0,2.09,8.41L4.16,16.91a7.89,7.89,0,0,0-2.74,3.81L.12,24.63a1.73,1.73,0,0,0,.22,1.66c.81,1.19,3.21,2.18,4.72,2.55a.92.92,0,0,0,0,.16c0,1.75,2.47,2.3,3.28,2.48a28.27,28.27,0,0,0,5.72.52c3.36,0,9-.39,9-3a1,1,0,0,0,0-.16c1.52-.37,3.91-1.36,4.72-2.55A1.75,1.75,0,0,0,28,24.68Zm-8.16-8.2-2.61,2.09-2-2.67a7.8,7.8,0,0,0,2.59-.84ZM21.22,2c.16,1.14.16,2.72-.54,3.08a6.3,6.3,0,0,1-1.77-.67A11.76,11.76,0,0,0,14.05,3a14.15,14.15,0,0,0-5.7,1.7,1.21,1.21,0,0,1,0-1C8.73,2.88,10,2,12.05,2ZM8.05,8a6.4,6.4,0,0,1,.07-.88l.43-.26A13.67,13.67,0,0,1,14.05,5a10.05,10.05,0,0,1,4,1.23A12.83,12.83,0,0,0,20,7a5.69,5.69,0,0,1,.1,1,6,6,0,0,1-12,0Zm4.82,7.9-1.93,2.58L8.66,16.2l1.62-1.14A7.88,7.88,0,0,0,12.87,15.9Zm-5.79,13L8,24.2A1,1,0,0,0,7.24,23a1,1,0,0,0-1.17.78l-.62,3.09A8.72,8.72,0,0,1,2,25.21l1.29-3.86a5.77,5.77,0,0,1,2-2.82L7,17.36l3.34,3.35a1,1,0,0,0,.78.29,1,1,0,0,0,.62-.31L13.05,22l-2,5,2.23,3C9.67,29.91,7.57,29.31,7.08,28.92Zm15.56-2L22,23.8a1,1,0,1,0-2,.4L21,28.92c-.48.39-2.58,1-6.2,1.06l2.24-3-2-5,1.3-1.31a1,1,0,0,0,.57.3h.13a1,1,0,0,0,.62-.22l3.88-3.1,1.18.83a5.84,5.84,0,0,1,2.05,2.84l1.28,3.86A8.65,8.65,0,0,1,22.64,26.89Z"/></g></g></svg>